<svg width="256" height="256" viewBox="0 0 256 256" fill="none" xmlns="http://www.w3.org/2000/svg">
<path d="M128 24C65.8 24 24 68.34 24 123.66C24 173.34 61.12 214.38 105.62 225.02C106.946 225.323 108.312 225.467 109.68 225.45C114.72 225.45 118.8 221.37 118.8 216.33V213.1C118.8 208.06 122.88 204.02 127.92 204.02H156.48C161.52 204.02 165.6 208.06 165.6 213.1V220.53C165.599 225.57 169.679 229.65 174.719 229.65C176.439 229.664 178.146 229.431 179.769 228.98C228.469 215.17 262.009 174.13 262.009 124.45C262.009 69.13 220.209 24.79 165.009 24.79" fill="#0D6EFD"/>
<path d="M128 32C69.12 32 21.3333 77.12 21.3333 133.333C21.3333 177.333 48.7467 214.347 87.68 225.547C91.4133 226.667 95.2533 225.547 97.8133 222.667C100.373 219.787 100.907 215.733 99.2 212.32C91.84 196.853 88 178.507 88 160.213C88 112.427 125.973 74.6667 174.187 74.6667C192.107 74.6667 209.387 78.7733 224.853 86.1333C228.267 87.84 232.32 87.3067 235.2 84.7467C238.08 82.1867 239.04 78.1333 237.547 74.6133C221.44 42.4533 186.773 26.6667 146.667 26.6667C140.48 26.6667 134.293 27.2 128.32 28.16" fill="white"/>
<path d="M150.667 106.667H106.667C103.573 106.667 101.333 108.907 101.333 112V112C101.333 115.093 103.573 117.333 106.667 117.333H150.667C153.76 117.333 156 115.093 156 112V112C156 108.907 153.76 106.667 150.667 106.667Z" fill="white"/>
<path d="M150.667 138.667H106.667C103.573 138.667 101.333 140.907 101.333 144V144C101.333 147.093 103.573 149.333 106.667 149.333H150.667C153.76 149.333 156 147.093 156 144V144C156 140.907 153.76 138.667 150.667 138.667Z" fill="white"/>
<path d="M124 85.3333V176M124 85.3333L102.667 106.667M124 85.3333L145.333 106.667M124 176L102.667 154.667M124 176L145.333 154.667" stroke="white" stroke-width="16" stroke-linecap="round" stroke-linejoin="round"/>
</svg>
